<svg aria-roledescription="er" role="graphics-document document" viewBox="-127.7249984741211 0 654.9190063476562 962.3999633789062" style="max-width: 654.9190063476562px;" xmlns="http://www.w3.org/2000/svg" width="100%" id="mermaid-svg-1751805175761-28xvr9kmt"><style>#mermaid-svg-1751805175761-28xvr9kmt{font-family:"trebuchet ms",verdana,arial,sans-serif;font-size:16px;fill:#616161;}#mermaid-svg-1751805175761-28xvr9kmt .error-icon{fill:#f2dede;}#mermaid-svg-1751805175761-28xvr9kmt .error-text{fill:#a1260d;stroke:#a1260d;}#mermaid-svg-1751805175761-28xvr9kmt .edge-thickness-normal{stroke-width:2px;}#mermaid-svg-1751805175761-28xvr9kmt .edge-thickness-thick{stroke-width:3.5px;}#mermaid-svg-1751805175761-28xvr9kmt .edge-pattern-solid{stroke-dasharray:0;}#mermaid-svg-1751805175761-28xvr9kmt .edge-pattern-dashed{stroke-dasharray:3;}#mermaid-svg-1751805175761-28xvr9kmt .edge-pattern-dotted{stroke-dasharray:2;}#mermaid-svg-1751805175761-28xvr9kmt .marker{fill:#616161;stroke:#616161;}#mermaid-svg-1751805175761-28xvr9kmt .marker.cross{stroke:#616161;}#mermaid-svg-1751805175761-28xvr9kmt svg{font-family:"trebuchet ms",verdana,arial,sans-serif;font-size:16px;}#mermaid-svg-1751805175761-28xvr9kmt .entityBox{fill:#ffffff;stroke:#919191;}#mermaid-svg-1751805175761-28xvr9kmt .attributeBoxOdd{fill:#ffffff;stroke:#919191;}#mermaid-svg-1751805175761-28xvr9kmt .attributeBoxEven{fill:#f2f2f2;stroke:#919191;}#mermaid-svg-1751805175761-28xvr9kmt .relationshipLabelBox{fill:#c4c4c4;opacity:0.7;background-color:#c4c4c4;}#mermaid-svg-1751805175761-28xvr9kmt .relationshipLabelBox rect{opacity:0.5;}#mermaid-svg-1751805175761-28xvr9kmt .relationshipLine{stroke:#616161;}#mermaid-svg-1751805175761-28xvr9kmt .entityTitleText{text-anchor:middle;font-size:18px;fill:#616161;}#mermaid-svg-1751805175761-28xvr9kmt #MD_PARENT_START{fill:#f5f5f5!important;stroke:#616161!important;stroke-width:1;}#mermaid-svg-1751805175761-28xvr9kmt #MD_PARENT_END{fill:#f5f5f5!important;stroke:#616161!important;stroke-width:1;}#mermaid-svg-1751805175761-28xvr9kmt :root{--mermaid-font-family:"trebuchet ms",verdana,arial,sans-serif;}</style><g/><defs><marker orient="auto" markerHeight="240" markerWidth="190" refY="7" refX="0" id="MD_PARENT_START"><path d="M 18,7 L9,13 L1,7 L9,1 Z"/></marker></defs><defs><marker orient="auto" markerHeight="28" markerWidth="20" refY="7" refX="19" id="MD_PARENT_END"><path d="M 18,7 L9,13 L1,7 L9,1 Z"/></marker></defs><defs><marker orient="auto" markerHeight="18" markerWidth="18" refY="9" refX="0" id="ONLY_ONE_START"><path d="M9,0 L9,18 M15,0 L15,18" fill="none" stroke="gray"/></marker></defs><defs><marker orient="auto" markerHeight="18" markerWidth="18" refY="9" refX="18" id="ONLY_ONE_END"><path d="M3,0 L3,18 M9,0 L9,18" fill="none" stroke="gray"/></marker></defs><defs><marker orient="auto" markerHeight="18" markerWidth="30" refY="9" refX="0" id="ZERO_OR_ONE_START"><circle r="6" cy="9" cx="21" fill="white" stroke="gray"/><path d="M9,0 L9,18" fill="none" stroke="gray"/></marker></defs><defs><marker orient="auto" markerHeight="18" markerWidth="30" refY="9" refX="30" id="ZERO_OR_ONE_END"><circle r="6" cy="9" cx="9" fill="white" stroke="gray"/><path d="M21,0 L21,18" fill="none" stroke="gray"/></marker></defs><defs><marker orient="auto" markerHeight="36" markerWidth="45" refY="18" refX="18" id="ONE_OR_MORE_START"><path d="M0,18 Q 18,0 36,18 Q 18,36 0,18 M42,9 L42,27" fill="none" stroke="gray"/></marker></defs><defs><marker orient="auto" markerHeight="36" markerWidth="45" refY="18" refX="27" id="ONE_OR_MORE_END"><path d="M3,9 L3,27 M9,18 Q27,0 45,18 Q27,36 9,18" fill="none" stroke="gray"/></marker></defs><defs><marker orient="auto" markerHeight="36" markerWidth="57" refY="18" refX="18" id="ZERO_OR_MORE_START"><circle r="6" cy="18" cx="48" fill="white" stroke="gray"/><path d="M0,18 Q18,0 36,18 Q18,36 0,18" fill="none" stroke="gray"/></marker></defs><defs><marker orient="auto" markerHeight="36" markerWidth="57" refY="18" refX="39" id="ZERO_OR_MORE_END"><circle r="6" cy="18" cx="9" fill="white" stroke="gray"/><path d="M21,18 Q39,0 57,18 Q39,36 21,18" fill="none" stroke="gray"/></marker></defs><path style="stroke: gray; fill: none;" marker-start="url(#ONLY_ONE_START)" marker-end="url(#ZERO_OR_MORE_END)" d="M96.351,365.2L96.351,373.533C96.351,381.867,96.351,398.533,113.841,424.995C131.33,451.458,166.309,487.715,183.798,505.844L201.287,523.973" class="er relationshipLine"/><path style="stroke: gray; fill: none;" marker-start="url(#ONLY_ONE_START)" marker-end="url(#ZERO_OR_MORE_END)" d="M138.022,131.6L131.077,139.933C124.132,148.267,110.242,164.933,103.297,181.6C96.351,198.267,96.351,214.933,96.351,223.267L96.351,231.6" class="er relationshipLine"/><path style="stroke: gray; fill: none;" marker-start="url(#ONLY_ONE_START)" marker-end="url(#ZERO_OR_MORE_END)" d="M231.032,131.6L237.977,139.933C244.922,148.267,258.813,164.933,265.758,192.733C272.703,220.533,272.703,259.467,272.703,298.4C272.703,337.333,272.703,376.267,272.703,404.067C272.703,431.867,272.703,448.533,272.703,456.867L272.703,465.2" class="er relationshipLine"/><path style="stroke: gray; fill: none;" marker-start="url(#ONLY_ONE_START)" marker-end="url(#ZERO_OR_MORE_END)" d="M260.879,107.426L290.724,119.788C320.568,132.151,380.258,156.875,410.103,177.571C439.948,198.267,439.948,214.933,439.948,223.267L439.948,231.6" class="er relationshipLine"/><path style="stroke: gray; fill: none;" marker-start="url(#ONLY_ONE_START)" marker-end="url(#ZERO_OR_MORE_END)" d="M108.176,106.337L76.813,118.881C45.45,131.425,-17.275,156.512,-48.637,188.523C-80,220.533,-80,259.467,-80,298.4C-80,337.333,-80,376.267,-80,426.2C-80,476.133,-80,537.067,-80,598C-80,658.933,-80,719.867,-62.09,761.078C-44.179,802.29,-8.358,823.781,9.552,834.526L27.462,845.271" class="er relationshipLine"/><path style="stroke: gray; fill: none;" marker-start="url(#ZERO_OR_MORE_START)" marker-end="url(#ONLY_ONE_END)" d="M272.703,730.8L272.703,739.133C272.703,747.467,272.703,764.133,254.792,783.212C236.882,802.29,201.061,823.781,183.151,834.526L165.241,845.271" class="er relationshipLine"/><path style="stroke: gray; fill: none;" marker-start="url(#ZERO_OR_MORE_START)" marker-end="url(#ONLY_ONE_END)" d="M439.948,365.2L439.948,373.533C439.948,381.867,439.948,398.533,423.977,424.324C408.005,450.114,376.062,485.028,360.09,502.485L344.119,519.942" class="er relationshipLine"/><g transform="translate(108.17570877075195,20 )" id="entity-Admin-ac960f68-b1b2-5358-9d08-eeaa5108f92f"><rect height="111.60000038146973" width="152.70283699035645" y="0" x="0" class="er entityBox"/><text transform="translate(76.35141849517822,11.800000190734863)" style="dominant-baseline: middle; text-anchor: middle; font-size: 12px;" y="0" x="0" id="text-entity-Admin-ac960f68-b1b2-5358-9d08-eeaa5108f92f" class="er entityLabel">Admin</text><rect height="22" width="51.668556213378906" y="23.600000381469727" x="0" class="er attributeBoxOdd"/><text transform="translate(5,34.60000038146973)" style="dominant-baseline: middle; font-size: 10.2px;" y="0" x="0" id="text-entity-Admin-ac960f68-b1b2-5358-9d08-eeaa5108f92f-attr-1-type" class="er entityLabel">int</text><rect height="22" width="78.02021789550781" y="23.600000381469727" x="51.668556213378906" class="er attributeBoxOdd"/><text transform="translate(56.668556213378906,34.60000038146973)" style="dominant-baseline: middle; font-size: 10.2px;" y="0" x="0" id="text-entity-Admin-ac960f68-b1b2-5358-9d08-eeaa5108f92f-attr-1-name" class="er entityLabel">id</text><rect height="22" width="23.014062881469727" y="23.600000381469727" x="129.68877410888672" class="er attributeBoxOdd"/><text transform="translate(134.68877410888672,34.60000038146973)" style="dominant-baseline: middle; font-size: 10.2px;" y="0" x="0" id="text-entity-Admin-ac960f68-b1b2-5358-9d08-eeaa5108f92f-attr-1-key" class="er entityLabel">PK</text><rect height="22" width="51.668556213378906" y="45.60000038146973" x="0" class="er attributeBoxEven"/><text transform="translate(5,56.60000038146973)" style="dominant-baseline: middle; font-size: 10.2px;" y="0" x="0" id="text-entity-Admin-ac960f68-b1b2-5358-9d08-eeaa5108f92f-attr-2-type" class="er entityLabel">string</text><rect height="22" width="78.02021789550781" y="45.60000038146973" x="51.668556213378906" class="er attributeBoxEven"/><text transform="translate(56.668556213378906,56.60000038146973)" style="dominant-baseline: middle; font-size: 10.2px;" y="0" x="0" id="text-entity-Admin-ac960f68-b1b2-5358-9d08-eeaa5108f92f-attr-2-name" class="er entityLabel">username</text><rect height="22" width="23.014062881469727" y="45.60000038146973" x="129.68877410888672" class="er attributeBoxEven"/><text transform="translate(134.68877410888672,56.60000038146973)" style="dominant-baseline: middle; font-size: 10.2px;" y="0" x="0" id="text-entity-Admin-ac960f68-b1b2-5358-9d08-eeaa5108f92f-attr-2-key" class="er entityLabel">UK</text><rect height="22" width="51.668556213378906" y="67.60000038146973" x="0" class="er attributeBoxOdd"/><text transform="translate(5,78.60000038146973)" style="dominant-baseline: middle; font-size: 10.2px;" y="0" x="0" id="text-entity-Admin-ac960f68-b1b2-5358-9d08-eeaa5108f92f-attr-3-type" class="er entityLabel">string</text><rect height="22" width="78.02021789550781" y="67.60000038146973" x="51.668556213378906" class="er attributeBoxOdd"/><text transform="translate(56.668556213378906,78.60000038146973)" style="dominant-baseline: middle; font-size: 10.2px;" y="0" x="0" id="text-entity-Admin-ac960f68-b1b2-5358-9d08-eeaa5108f92f-attr-3-name" class="er entityLabel">password_hash</text><rect height="22" width="23.014062881469727" y="67.60000038146973" x="129.68877410888672" class="er attributeBoxOdd"/><text transform="translate(134.68877410888672,78.60000038146973)" style="dominant-baseline: middle; font-size: 10.2px;" y="0" x="0" id="text-entity-Admin-ac960f68-b1b2-5358-9d08-eeaa5108f92f-attr-3-key" class="er entityLabel"/><rect height="22" width="51.668556213378906" y="89.60000038146973" x="0" class="er attributeBoxEven"/><text transform="translate(5,100.60000038146973)" style="dominant-baseline: middle; font-size: 10.2px;" y="0" x="0" id="text-entity-Admin-ac960f68-b1b2-5358-9d08-eeaa5108f92f-attr-4-type" class="er entityLabel">datetime</text><rect height="22" width="78.02021789550781" y="89.60000038146973" x="51.668556213378906" class="er attributeBoxEven"/><text transform="translate(56.668556213378906,100.60000038146973)" style="dominant-baseline: middle; font-size: 10.2px;" y="0" x="0" id="text-entity-Admin-ac960f68-b1b2-5358-9d08-eeaa5108f92f-attr-4-name" class="er entityLabel">created_at</text><rect height="22" width="23.014062881469727" y="89.60000038146973" x="129.68877410888672" class="er attributeBoxEven"/><text transform="translate(134.68877410888672,100.60000038146973)" style="dominant-baseline: middle; font-size: 10.2px;" y="0" x="0" id="text-entity-Admin-ac960f68-b1b2-5358-9d08-eeaa5108f92f-attr-4-key" class="er entityLabel"/></g><g transform="translate(20,231.5999984741211 )" id="entity-PlaygroundManagers-49c2b3a5-7421-5909-abf8-517705309a45"><rect height="133.60000038146973" width="152.70283699035645" y="0" x="0" class="er entityBox"/><text transform="translate(76.35141849517822,11.800000190734863)" style="dominant-baseline: middle; text-anchor: middle; font-size: 12px;" y="0" x="0" id="text-entity-PlaygroundManagers-49c2b3a5-7421-5909-abf8-517705309a45" class="er entityLabel">Playground_Managers</text><rect height="22" width="51.668556213378906" y="23.600000381469727" x="0" class="er attributeBoxOdd"/><text transform="translate(5,34.60000038146973)" style="dominant-baseline: middle; font-size: 10.2px;" y="0" x="0" id="text-entity-PlaygroundManagers-49c2b3a5-7421-5909-abf8-517705309a45-attr-1-type" class="er entityLabel">int</text><rect height="22" width="78.02021789550781" y="23.600000381469727" x="51.668556213378906" class="er attributeBoxOdd"/><text transform="translate(56.668556213378906,34.60000038146973)" style="dominant-baseline: middle; font-size: 10.2px;" y="0" x="0" id="text-entity-PlaygroundManagers-49c2b3a5-7421-5909-abf8-517705309a45-attr-1-name" class="er entityLabel">id</text><rect height="22" width="23.014062881469727" y="23.600000381469727" x="129.68877410888672" class="er attributeBoxOdd"/><text transform="translate(134.68877410888672,34.60000038146973)" style="dominant-baseline: middle; font-size: 10.2px;" y="0" x="0" id="text-entity-PlaygroundManagers-49c2b3a5-7421-5909-abf8-517705309a45-attr-1-key" class="er entityLabel">PK</text><rect height="22" width="51.668556213378906" y="45.60000038146973" x="0" class="er attributeBoxEven"/><text transform="translate(5,56.60000038146973)" style="dominant-baseline: middle; font-size: 10.2px;" y="0" x="0" id="text-entity-PlaygroundManagers-49c2b3a5-7421-5909-abf8-517705309a45-attr-2-type" class="er entityLabel">string</text><rect height="22" width="78.02021789550781" y="45.60000038146973" x="51.668556213378906" class="er attributeBoxEven"/><text transform="translate(56.668556213378906,56.60000038146973)" style="dominant-baseline: middle; font-size: 10.2px;" y="0" x="0" id="text-entity-PlaygroundManagers-49c2b3a5-7421-5909-abf8-517705309a45-attr-2-name" class="er entityLabel">username</text><rect height="22" width="23.014062881469727" y="45.60000038146973" x="129.68877410888672" class="er attributeBoxEven"/><text transform="translate(134.68877410888672,56.60000038146973)" style="dominant-baseline: middle; font-size: 10.2px;" y="0" x="0" id="text-entity-PlaygroundManagers-49c2b3a5-7421-5909-abf8-517705309a45-attr-2-key" class="er entityLabel">UK</text><rect height="22" width="51.668556213378906" y="67.60000038146973" x="0" class="er attributeBoxOdd"/><text transform="translate(5,78.60000038146973)" style="dominant-baseline: middle; font-size: 10.2px;" y="0" x="0" id="text-entity-PlaygroundManagers-49c2b3a5-7421-5909-abf8-517705309a45-attr-3-type" class="er entityLabel">string</text><rect height="22" width="78.02021789550781" y="67.60000038146973" x="51.668556213378906" class="er attributeBoxOdd"/><text transform="translate(56.668556213378906,78.60000038146973)" style="dominant-baseline: middle; font-size: 10.2px;" y="0" x="0" id="text-entity-PlaygroundManagers-49c2b3a5-7421-5909-abf8-517705309a45-attr-3-name" class="er entityLabel">password_hash</text><rect height="22" width="23.014062881469727" y="67.60000038146973" x="129.68877410888672" class="er attributeBoxOdd"/><text transform="translate(134.68877410888672,78.60000038146973)" style="dominant-baseline: middle; font-size: 10.2px;" y="0" x="0" id="text-entity-PlaygroundManagers-49c2b3a5-7421-5909-abf8-517705309a45-attr-3-key" class="er entityLabel"/><rect height="22" width="51.668556213378906" y="89.60000038146973" x="0" class="er attributeBoxEven"/><text transform="translate(5,100.60000038146973)" style="dominant-baseline: middle; font-size: 10.2px;" y="0" x="0" id="text-entity-PlaygroundManagers-49c2b3a5-7421-5909-abf8-517705309a45-attr-4-type" class="er entityLabel">string</text><rect height="22" width="78.02021789550781" y="89.60000038146973" x="51.668556213378906" class="er attributeBoxEven"/><text transform="translate(56.668556213378906,100.60000038146973)" style="dominant-baseline: middle; font-size: 10.2px;" y="0" x="0" id="text-entity-PlaygroundManagers-49c2b3a5-7421-5909-abf8-517705309a45-attr-4-name" class="er entityLabel">name</text><rect height="22" width="23.014062881469727" y="89.60000038146973" x="129.68877410888672" class="er attributeBoxEven"/><text transform="translate(134.68877410888672,100.60000038146973)" style="dominant-baseline: middle; font-size: 10.2px;" y="0" x="0" id="text-entity-PlaygroundManagers-49c2b3a5-7421-5909-abf8-517705309a45-attr-4-key" class="er entityLabel"/><rect height="22" width="51.668556213378906" y="111.60000038146973" x="0" class="er attributeBoxOdd"/><text transform="translate(5,122.60000038146973)" style="dominant-baseline: middle; font-size: 10.2px;" y="0" x="0" id="text-entity-PlaygroundManagers-49c2b3a5-7421-5909-abf8-517705309a45-attr-5-type" class="er entityLabel">datetime</text><rect height="22" width="78.02021789550781" y="111.60000038146973" x="51.668556213378906" class="er attributeBoxOdd"/><text transform="translate(56.668556213378906,122.60000038146973)" style="dominant-baseline: middle; font-size: 10.2px;" y="0" x="0" id="text-entity-PlaygroundManagers-49c2b3a5-7421-5909-abf8-517705309a45-attr-5-name" class="er entityLabel">created_at</text><rect height="22" width="23.014062881469727" y="111.60000038146973" x="129.68877410888672" class="er attributeBoxOdd"/><text transform="translate(134.68877410888672,122.60000038146973)" style="dominant-baseline: middle; font-size: 10.2px;" y="0" x="0" id="text-entity-PlaygroundManagers-49c2b3a5-7421-5909-abf8-517705309a45-attr-5-key" class="er entityLabel"/></g><g transform="translate(201.2870635986328,465.2000045776367 )" id="entity-Bookings-26ffb855-7c7c-530b-a9fa-7760bdcdde16"><rect height="265.6000003814697" width="142.83154582977295" y="0" x="0" class="er entityBox"/><text transform="translate(71.41577291488647,11.800000190734863)" style="dominant-baseline: middle; text-anchor: middle; font-size: 12px;" y="0" x="0" id="text-entity-Bookings-26ffb855-7c7c-530b-a9fa-7760bdcdde16" class="er entityLabel">Bookings</text><rect height="22" width="51.668556213378906" y="23.600000381469727" x="0" class="er attributeBoxOdd"/><text transform="translate(5,34.60000038146973)" style="dominant-baseline: middle; font-size: 10.2px;" y="0" x="0" id="text-entity-Bookings-26ffb855-7c7c-530b-a9fa-7760bdcdde16-attr-1-type" class="er entityLabel">int</text><rect height="22" width="69.0752944946289" y="23.600000381469727" x="51.668556213378906" class="er attributeBoxOdd"/><text transform="translate(56.668556213378906,34.60000038146973)" style="dominant-baseline: middle; font-size: 10.2px;" y="0" x="0" id="text-entity-Bookings-26ffb855-7c7c-530b-a9fa-7760bdcdde16-attr-1-name" class="er entityLabel">id</text><rect height="22" width="22.087695121765137" y="23.600000381469727" x="120.74385070800781" class="er attributeBoxOdd"/><text transform="translate(125.74385070800781,34.60000038146973)" style="dominant-baseline: middle; font-size: 10.2px;" y="0" x="0" id="text-entity-Bookings-26ffb855-7c7c-530b-a9fa-7760bdcdde16-attr-1-key" class="er entityLabel">PK</text><rect height="22" width="51.668556213378906" y="45.60000038146973" x="0" class="er attributeBoxEven"/><text transform="translate(5,56.60000038146973)" style="dominant-baseline: middle; font-size: 10.2px;" y="0" x="0" id="text-entity-Bookings-26ffb855-7c7c-530b-a9fa-7760bdcdde16-attr-2-type" class="er entityLabel">string</text><rect height="22" width="69.0752944946289" y="45.60000038146973" x="51.668556213378906" class="er attributeBoxEven"/><text transform="translate(56.668556213378906,56.60000038146973)" style="dominant-baseline: middle; font-size: 10.2px;" y="0" x="0" id="text-entity-Bookings-26ffb855-7c7c-530b-a9fa-7760bdcdde16-attr-2-name" class="er entityLabel">name</text><rect height="22" width="22.087695121765137" y="45.60000038146973" x="120.74385070800781" class="er attributeBoxEven"/><text transform="translate(125.74385070800781,56.60000038146973)" style="dominant-baseline: middle; font-size: 10.2px;" y="0" x="0" id="text-entity-Bookings-26ffb855-7c7c-530b-a9fa-7760bdcdde16-attr-2-key" class="er entityLabel"/><rect height="22" width="51.668556213378906" y="67.60000038146973" x="0" class="er attributeBoxOdd"/><text transform="translate(5,78.60000038146973)" style="dominant-baseline: middle; font-size: 10.2px;" y="0" x="0" id="text-entity-Bookings-26ffb855-7c7c-530b-a9fa-7760bdcdde16-attr-3-type" class="er entityLabel">string</text><rect height="22" width="69.0752944946289" y="67.60000038146973" x="51.668556213378906" class="er attributeBoxOdd"/><text transform="translate(56.668556213378906,78.60000038146973)" style="dominant-baseline: middle; font-size: 10.2px;" y="0" x="0" id="text-entity-Bookings-26ffb855-7c7c-530b-a9fa-7760bdcdde16-attr-3-name" class="er entityLabel">phone</text><rect height="22" width="22.087695121765137" y="67.60000038146973" x="120.74385070800781" class="er attributeBoxOdd"/><text transform="translate(125.74385070800781,78.60000038146973)" style="dominant-baseline: middle; font-size: 10.2px;" y="0" x="0" id="text-entity-Bookings-26ffb855-7c7c-530b-a9fa-7760bdcdde16-attr-3-key" class="er entityLabel"/><rect height="22" width="51.668556213378906" y="89.60000038146973" x="0" class="er attributeBoxEven"/><text transform="translate(5,100.60000038146973)" style="dominant-baseline: middle; font-size: 10.2px;" y="0" x="0" id="text-entity-Bookings-26ffb855-7c7c-530b-a9fa-7760bdcdde16-attr-4-type" class="er entityLabel">string</text><rect height="22" width="69.0752944946289" y="89.60000038146973" x="51.668556213378906" class="er attributeBoxEven"/><text transform="translate(56.668556213378906,100.60000038146973)" style="dominant-baseline: middle; font-size: 10.2px;" y="0" x="0" id="text-entity-Bookings-26ffb855-7c7c-530b-a9fa-7760bdcdde16-attr-4-name" class="er entityLabel">date</text><rect height="22" width="22.087695121765137" y="89.60000038146973" x="120.74385070800781" class="er attributeBoxEven"/><text transform="translate(125.74385070800781,100.60000038146973)" style="dominant-baseline: middle; font-size: 10.2px;" y="0" x="0" id="text-entity-Bookings-26ffb855-7c7c-530b-a9fa-7760bdcdde16-attr-4-key" class="er entityLabel"/><rect height="22" width="51.668556213378906" y="111.60000038146973" x="0" class="er attributeBoxOdd"/><text transform="translate(5,122.60000038146973)" style="dominant-baseline: middle; font-size: 10.2px;" y="0" x="0" id="text-entity-Bookings-26ffb855-7c7c-530b-a9fa-7760bdcdde16-attr-5-type" class="er entityLabel">string</text><rect height="22" width="69.0752944946289" y="111.60000038146973" x="51.668556213378906" class="er attributeBoxOdd"/><text transform="translate(56.668556213378906,122.60000038146973)" style="dominant-baseline: middle; font-size: 10.2px;" y="0" x="0" id="text-entity-Bookings-26ffb855-7c7c-530b-a9fa-7760bdcdde16-attr-5-name" class="er entityLabel">start_time</text><rect height="22" width="22.087695121765137" y="111.60000038146973" x="120.74385070800781" class="er attributeBoxOdd"/><text transform="translate(125.74385070800781,122.60000038146973)" style="dominant-baseline: middle; font-size: 10.2px;" y="0" x="0" id="text-entity-Bookings-26ffb855-7c7c-530b-a9fa-7760bdcdde16-attr-5-key" class="er entityLabel"/><rect height="22" width="51.668556213378906" y="133.60000038146973" x="0" class="er attributeBoxEven"/><text transform="translate(5,144.60000038146973)" style="dominant-baseline: middle; font-size: 10.2px;" y="0" x="0" id="text-entity-Bookings-26ffb855-7c7c-530b-a9fa-7760bdcdde16-attr-6-type" class="er entityLabel">string</text><rect height="22" width="69.0752944946289" y="133.60000038146973" x="51.668556213378906" class="er attributeBoxEven"/><text transform="translate(56.668556213378906,144.60000038146973)" style="dominant-baseline: middle; font-size: 10.2px;" y="0" x="0" id="text-entity-Bookings-26ffb855-7c7c-530b-a9fa-7760bdcdde16-attr-6-name" class="er entityLabel">end_time</text><rect height="22" width="22.087695121765137" y="133.60000038146973" x="120.74385070800781" class="er attributeBoxEven"/><text transform="translate(125.74385070800781,144.60000038146973)" style="dominant-baseline: middle; font-size: 10.2px;" y="0" x="0" id="text-entity-Bookings-26ffb855-7c7c-530b-a9fa-7760bdcdde16-attr-6-key" class="er entityLabel"/><rect height="22" width="51.668556213378906" y="155.60000038146973" x="0" class="er attributeBoxOdd"/><text transform="translate(5,166.60000038146973)" style="dominant-baseline: middle; font-size: 10.2px;" y="0" x="0" id="text-entity-Bookings-26ffb855-7c7c-530b-a9fa-7760bdcdde16-attr-7-type" class="er entityLabel">string</text><rect height="22" width="69.0752944946289" y="155.60000038146973" x="51.668556213378906" class="er attributeBoxOdd"/><text transform="translate(56.668556213378906,166.60000038146973)" style="dominant-baseline: middle; font-size: 10.2px;" y="0" x="0" id="text-entity-Bookings-26ffb855-7c7c-530b-a9fa-7760bdcdde16-attr-7-name" class="er entityLabel">status</text><rect height="22" width="22.087695121765137" y="155.60000038146973" x="120.74385070800781" class="er attributeBoxOdd"/><text transform="translate(125.74385070800781,166.60000038146973)" style="dominant-baseline: middle; font-size: 10.2px;" y="0" x="0" id="text-entity-Bookings-26ffb855-7c7c-530b-a9fa-7760bdcdde16-attr-7-key" class="er entityLabel"/><rect height="22" width="51.668556213378906" y="177.60000038146973" x="0" class="er attributeBoxEven"/><text transform="translate(5,188.60000038146973)" style="dominant-baseline: middle; font-size: 10.2px;" y="0" x="0" id="text-entity-Bookings-26ffb855-7c7c-530b-a9fa-7760bdcdde16-attr-8-type" class="er entityLabel">int</text><rect height="22" width="69.0752944946289" y="177.60000038146973" x="51.668556213378906" class="er attributeBoxEven"/><text transform="translate(56.668556213378906,188.60000038146973)" style="dominant-baseline: middle; font-size: 10.2px;" y="0" x="0" id="text-entity-Bookings-26ffb855-7c7c-530b-a9fa-7760bdcdde16-attr-8-name" class="er entityLabel">paid</text><rect height="22" width="22.087695121765137" y="177.60000038146973" x="120.74385070800781" class="er attributeBoxEven"/><text transform="translate(125.74385070800781,188.60000038146973)" style="dominant-baseline: middle; font-size: 10.2px;" y="0" x="0" id="text-entity-Bookings-26ffb855-7c7c-530b-a9fa-7760bdcdde16-attr-8-key" class="er entityLabel"/><rect height="22" width="51.668556213378906" y="199.60000038146973" x="0" class="er attributeBoxOdd"/><text transform="translate(5,210.60000038146973)" style="dominant-baseline: middle; font-size: 10.2px;" y="0" x="0" id="text-entity-Bookings-26ffb855-7c7c-530b-a9fa-7760bdcdde16-attr-9-type" class="er entityLabel">string</text><rect height="22" width="69.0752944946289" y="199.60000038146973" x="51.668556213378906" class="er attributeBoxOdd"/><text transform="translate(56.668556213378906,210.60000038146973)" style="dominant-baseline: middle; font-size: 10.2px;" y="0" x="0" id="text-entity-Bookings-26ffb855-7c7c-530b-a9fa-7760bdcdde16-attr-9-name" class="er entityLabel">collected_by</text><rect height="22" width="22.087695121765137" y="199.60000038146973" x="120.74385070800781" class="er attributeBoxOdd"/><text transform="translate(125.74385070800781,210.60000038146973)" style="dominant-baseline: middle; font-size: 10.2px;" y="0" x="0" id="text-entity-Bookings-26ffb855-7c7c-530b-a9fa-7760bdcdde16-attr-9-key" class="er entityLabel">FK</text><rect height="22" width="51.668556213378906" y="221.60000038146973" x="0" class="er attributeBoxEven"/><text transform="translate(5,232.60000038146973)" style="dominant-baseline: middle; font-size: 10.2px;" y="0" x="0" id="text-entity-Bookings-26ffb855-7c7c-530b-a9fa-7760bdcdde16-attr-10-type" class="er entityLabel">datetime</text><rect height="22" width="69.0752944946289" y="221.60000038146973" x="51.668556213378906" class="er attributeBoxEven"/><text transform="translate(56.668556213378906,232.60000038146973)" style="dominant-baseline: middle; font-size: 10.2px;" y="0" x="0" id="text-entity-Bookings-26ffb855-7c7c-530b-a9fa-7760bdcdde16-attr-10-name" class="er entityLabel">created_at</text><rect height="22" width="22.087695121765137" y="221.60000038146973" x="120.74385070800781" class="er attributeBoxEven"/><text transform="translate(125.74385070800781,232.60000038146973)" style="dominant-baseline: middle; font-size: 10.2px;" y="0" x="0" id="text-entity-Bookings-26ffb855-7c7c-530b-a9fa-7760bdcdde16-attr-10-key" class="er entityLabel"/><rect height="22" width="51.668556213378906" y="243.60000038146973" x="0" class="er attributeBoxOdd"/><text transform="translate(5,254.60000038146973)" style="dominant-baseline: middle; font-size: 10.2px;" y="0" x="0" id="text-entity-Bookings-26ffb855-7c7c-530b-a9fa-7760bdcdde16-attr-11-type" class="er entityLabel">datetime</text><rect height="22" width="69.0752944946289" y="243.60000038146973" x="51.668556213378906" class="er attributeBoxOdd"/><text transform="translate(56.668556213378906,254.60000038146973)" style="dominant-baseline: middle; font-size: 10.2px;" y="0" x="0" id="text-entity-Bookings-26ffb855-7c7c-530b-a9fa-7760bdcdde16-attr-11-name" class="er entityLabel">updated_at</text><rect height="22" width="22.087695121765137" y="243.60000038146973" x="120.74385070800781" class="er attributeBoxOdd"/><text transform="translate(125.74385070800781,254.60000038146973)" style="dominant-baseline: middle; font-size: 10.2px;" y="0" x="0" id="text-entity-Bookings-26ffb855-7c7c-530b-a9fa-7760bdcdde16-attr-11-key" class="er entityLabel"/></g><g transform="translate(372.7028350830078,231.5999984741211 )" id="entity-Blacklist-e3e1c62e-2cdf-5cac-a235-327c18afc30c"><rect height="133.60000038146973" width="134.49111461639404" y="0" x="0" class="er entityBox"/><text transform="translate(67.24555730819702,11.800000190734863)" style="dominant-baseline: middle; text-anchor: middle; font-size: 12px;" y="0" x="0" id="text-entity-Blacklist-e3e1c62e-2cdf-5cac-a235-327c18afc30c" class="er entityLabel">Blacklist</text><rect height="22" width="51.668556213378906" y="23.600000381469727" x="0" class="er attributeBoxOdd"/><text transform="translate(5,34.60000038146973)" style="dominant-baseline: middle; font-size: 10.2px;" y="0" x="0" id="text-entity-Blacklist-e3e1c62e-2cdf-5cac-a235-327c18afc30c-attr-1-type" class="er entityLabel">int</text><rect height="22" width="60.73486328125" y="23.600000381469727" x="51.668556213378906" class="er attributeBoxOdd"/><text transform="translate(56.668556213378906,34.60000038146973)" style="dominant-baseline: middle; font-size: 10.2px;" y="0" x="0" id="text-entity-Blacklist-e3e1c62e-2cdf-5cac-a235-327c18afc30c-attr-1-name" class="er entityLabel">id</text><rect height="22" width="22.087695121765137" y="23.600000381469727" x="112.4034194946289" class="er attributeBoxOdd"/><text transform="translate(117.4034194946289,34.60000038146973)" style="dominant-baseline: middle; font-size: 10.2px;" y="0" x="0" id="text-entity-Blacklist-e3e1c62e-2cdf-5cac-a235-327c18afc30c-attr-1-key" class="er entityLabel">PK</text><rect height="22" width="51.668556213378906" y="45.60000038146973" x="0" class="er attributeBoxEven"/><text transform="translate(5,56.60000038146973)" style="dominant-baseline: middle; font-size: 10.2px;" y="0" x="0" id="text-entity-Blacklist-e3e1c62e-2cdf-5cac-a235-327c18afc30c-attr-2-type" class="er entityLabel">string</text><rect height="22" width="60.73486328125" y="45.60000038146973" x="51.668556213378906" class="er attributeBoxEven"/><text transform="translate(56.668556213378906,56.60000038146973)" style="dominant-baseline: middle; font-size: 10.2px;" y="0" x="0" id="text-entity-Blacklist-e3e1c62e-2cdf-5cac-a235-327c18afc30c-attr-2-name" class="er entityLabel">name</text><rect height="22" width="22.087695121765137" y="45.60000038146973" x="112.4034194946289" class="er attributeBoxEven"/><text transform="translate(117.4034194946289,56.60000038146973)" style="dominant-baseline: middle; font-size: 10.2px;" y="0" x="0" id="text-entity-Blacklist-e3e1c62e-2cdf-5cac-a235-327c18afc30c-attr-2-key" class="er entityLabel"/><rect height="22" width="51.668556213378906" y="67.60000038146973" x="0" class="er attributeBoxOdd"/><text transform="translate(5,78.60000038146973)" style="dominant-baseline: middle; font-size: 10.2px;" y="0" x="0" id="text-entity-Blacklist-e3e1c62e-2cdf-5cac-a235-327c18afc30c-attr-3-type" class="er entityLabel">string</text><rect height="22" width="60.73486328125" y="67.60000038146973" x="51.668556213378906" class="er attributeBoxOdd"/><text transform="translate(56.668556213378906,78.60000038146973)" style="dominant-baseline: middle; font-size: 10.2px;" y="0" x="0" id="text-entity-Blacklist-e3e1c62e-2cdf-5cac-a235-327c18afc30c-attr-3-name" class="er entityLabel">phone</text><rect height="22" width="22.087695121765137" y="67.60000038146973" x="112.4034194946289" class="er attributeBoxOdd"/><text transform="translate(117.4034194946289,78.60000038146973)" style="dominant-baseline: middle; font-size: 10.2px;" y="0" x="0" id="text-entity-Blacklist-e3e1c62e-2cdf-5cac-a235-327c18afc30c-attr-3-key" class="er entityLabel"/><rect height="22" width="51.668556213378906" y="89.60000038146973" x="0" class="er attributeBoxEven"/><text transform="translate(5,100.60000038146973)" style="dominant-baseline: middle; font-size: 10.2px;" y="0" x="0" id="text-entity-Blacklist-e3e1c62e-2cdf-5cac-a235-327c18afc30c-attr-4-type" class="er entityLabel">string</text><rect height="22" width="60.73486328125" y="89.60000038146973" x="51.668556213378906" class="er attributeBoxEven"/><text transform="translate(56.668556213378906,100.60000038146973)" style="dominant-baseline: middle; font-size: 10.2px;" y="0" x="0" id="text-entity-Blacklist-e3e1c62e-2cdf-5cac-a235-327c18afc30c-attr-4-name" class="er entityLabel">reason</text><rect height="22" width="22.087695121765137" y="89.60000038146973" x="112.4034194946289" class="er attributeBoxEven"/><text transform="translate(117.4034194946289,100.60000038146973)" style="dominant-baseline: middle; font-size: 10.2px;" y="0" x="0" id="text-entity-Blacklist-e3e1c62e-2cdf-5cac-a235-327c18afc30c-attr-4-key" class="er entityLabel"/><rect height="22" width="51.668556213378906" y="111.60000038146973" x="0" class="er attributeBoxOdd"/><text transform="translate(5,122.60000038146973)" style="dominant-baseline: middle; font-size: 10.2px;" y="0" x="0" id="text-entity-Blacklist-e3e1c62e-2cdf-5cac-a235-327c18afc30c-attr-5-type" class="er entityLabel">datetime</text><rect height="22" width="60.73486328125" y="111.60000038146973" x="51.668556213378906" class="er attributeBoxOdd"/><text transform="translate(56.668556213378906,122.60000038146973)" style="dominant-baseline: middle; font-size: 10.2px;" y="0" x="0" id="text-entity-Blacklist-e3e1c62e-2cdf-5cac-a235-327c18afc30c-attr-5-name" class="er entityLabel">created_at</text><rect height="22" width="22.087695121765137" y="111.60000038146973" x="112.4034194946289" class="er attributeBoxOdd"/><text transform="translate(117.4034194946289,122.60000038146973)" style="dominant-baseline: middle; font-size: 10.2px;" y="0" x="0" id="text-entity-Blacklist-e3e1c62e-2cdf-5cac-a235-327c18afc30c-attr-5-key" class="er entityLabel"/></g><g transform="translate(27.462303161621094,830.8000106811523 )" id="entity-Settings-88feafd7-7f15-5c4e-adb4-d74913680b10"><rect height="111.60000038146973" width="137.778226852417" y="0" x="0" class="er entityBox"/><text transform="translate(68.8891134262085,11.800000190734863)" style="dominant-baseline: middle; text-anchor: middle; font-size: 12px;" y="0" x="0" id="text-entity-Settings-88feafd7-7f15-5c4e-adb4-d74913680b10" class="er entityLabel">Settings</text><rect height="22" width="51.668556213378906" y="23.600000381469727" x="0" class="er attributeBoxOdd"/><text transform="translate(5,34.60000038146973)" style="dominant-baseline: middle; font-size: 10.2px;" y="0" x="0" id="text-entity-Settings-88feafd7-7f15-5c4e-adb4-d74913680b10-attr-1-type" class="er entityLabel">int</text><rect height="22" width="63.09560775756836" y="23.600000381469727" x="51.668556213378906" class="er attributeBoxOdd"/><text transform="translate(56.668556213378906,34.60000038146973)" style="dominant-baseline: middle; font-size: 10.2px;" y="0" x="0" id="text-entity-Settings-88feafd7-7f15-5c4e-adb4-d74913680b10-attr-1-name" class="er entityLabel">id</text><rect height="22" width="23.014062881469727" y="23.600000381469727" x="114.76416397094727" class="er attributeBoxOdd"/><text transform="translate(119.76416397094727,34.60000038146973)" style="dominant-baseline: middle; font-size: 10.2px;" y="0" x="0" id="text-entity-Settings-88feafd7-7f15-5c4e-adb4-d74913680b10-attr-1-key" class="er entityLabel">PK</text><rect height="22" width="51.668556213378906" y="45.60000038146973" x="0" class="er attributeBoxEven"/><text transform="translate(5,56.60000038146973)" style="dominant-baseline: middle; font-size: 10.2px;" y="0" x="0" id="text-entity-Settings-88feafd7-7f15-5c4e-adb4-d74913680b10-attr-2-type" class="er entityLabel">string</text><rect height="22" width="63.09560775756836" y="45.60000038146973" x="51.668556213378906" class="er attributeBoxEven"/><text transform="translate(56.668556213378906,56.60000038146973)" style="dominant-baseline: middle; font-size: 10.2px;" y="0" x="0" id="text-entity-Settings-88feafd7-7f15-5c4e-adb4-d74913680b10-attr-2-name" class="er entityLabel">key</text><rect height="22" width="23.014062881469727" y="45.60000038146973" x="114.76416397094727" class="er attributeBoxEven"/><text transform="translate(119.76416397094727,56.60000038146973)" style="dominant-baseline: middle; font-size: 10.2px;" y="0" x="0" id="text-entity-Settings-88feafd7-7f15-5c4e-adb4-d74913680b10-attr-2-key" class="er entityLabel">UK</text><rect height="22" width="51.668556213378906" y="67.60000038146973" x="0" class="er attributeBoxOdd"/><text transform="translate(5,78.60000038146973)" style="dominant-baseline: middle; font-size: 10.2px;" y="0" x="0" id="text-entity-Settings-88feafd7-7f15-5c4e-adb4-d74913680b10-attr-3-type" class="er entityLabel">string</text><rect height="22" width="63.09560775756836" y="67.60000038146973" x="51.668556213378906" class="er attributeBoxOdd"/><text transform="translate(56.668556213378906,78.60000038146973)" style="dominant-baseline: middle; font-size: 10.2px;" y="0" x="0" id="text-entity-Settings-88feafd7-7f15-5c4e-adb4-d74913680b10-attr-3-name" class="er entityLabel">value</text><rect height="22" width="23.014062881469727" y="67.60000038146973" x="114.76416397094727" class="er attributeBoxOdd"/><text transform="translate(119.76416397094727,78.60000038146973)" style="dominant-baseline: middle; font-size: 10.2px;" y="0" x="0" id="text-entity-Settings-88feafd7-7f15-5c4e-adb4-d74913680b10-attr-3-key" class="er entityLabel"/><rect height="22" width="51.668556213378906" y="89.60000038146973" x="0" class="er attributeBoxEven"/><text transform="translate(5,100.60000038146973)" style="dominant-baseline: middle; font-size: 10.2px;" y="0" x="0" id="text-entity-Settings-88feafd7-7f15-5c4e-adb4-d74913680b10-attr-4-type" class="er entityLabel">datetime</text><rect height="22" width="63.09560775756836" y="89.60000038146973" x="51.668556213378906" class="er attributeBoxEven"/><text transform="translate(56.668556213378906,100.60000038146973)" style="dominant-baseline: middle; font-size: 10.2px;" y="0" x="0" id="text-entity-Settings-88feafd7-7f15-5c4e-adb4-d74913680b10-attr-4-name" class="er entityLabel">updated_at</text><rect height="22" width="23.014062881469727" y="89.60000038146973" x="114.76416397094727" class="er attributeBoxEven"/><text transform="translate(119.76416397094727,100.60000038146973)" style="dominant-baseline: middle; font-size: 10.2px;" y="0" x="0" id="text-entity-Settings-88feafd7-7f15-5c4e-adb4-d74913680b10-attr-4-key" class="er entityLabel"/></g><rect height="13.600000381469727" width="121.0250015258789" y="445.46745586395264" x="74.1558952331543" class="er relationshipLabelBox"/><text style="text-anchor: middle; dominant-baseline: middle; font-size: 12px;" y="452.2674560546875" x="134.66839599609375" id="rel15" class="er relationshipLabel">collects payment from</text><rect height="13.600000381469727" width="46.5625" y="170.13870525360107" x="82.13126373291016" class="er relationshipLabelBox"/><text style="text-anchor: middle; dominant-baseline: middle; font-size: 12px;" y="176.93870544433594" x="105.41251373291016" id="rel16" class="er relationshipLabel">manages</text><rect height="13.600000381469727" width="54.875" y="286.3956480026245" x="245.2642822265625" class="er relationshipLabelBox"/><text style="text-anchor: middle; dominant-baseline: middle; font-size: 12px;" y="293.1956481933594" x="272.7017822265625" id="rel17" class="er relationshipLabel">supervises</text><rect height="13.600000381469727" width="46.5625" y="146.43896770477295" x="343.3631591796875" class="er relationshipLabelBox"/><text style="text-anchor: middle; dominant-baseline: middle; font-size: 12px;" y="153.2389678955078" x="366.6444091796875" id="rel18" class="er relationshipLabel">manages</text><rect height="13.600000381469727" width="55.45000076293945" y="438.65706157684326" x="-107.7249927520752" class="er relationshipLabelBox"/><text style="text-anchor: middle; dominant-baseline: middle; font-size: 12px;" y="445.4570617675781" x="-79.99999237060547" id="rel19" class="er relationshipLabel">configures</text><rect height="13.600000381469727" width="92.26250457763672" y="793.5287351608276" x="189.13080215454102" class="er relationshipLabelBox"/><text style="text-anchor: middle; dominant-baseline: middle; font-size: 12px;" y="800.3287353515625" x="235.26205444335938" id="rel20" class="er relationshipLabel">uses pricing from</text><rect height="13.600000381469727" width="111.8128890991211" y="442.87944316864014" x="349.93156814575195" class="er relationshipLabelBox"/><text style="text-anchor: middle; dominant-baseline: middle; font-size: 12px;" y="449.679443359375" x="405.8380126953125" id="rel21" class="er relationshipLabel">prevents booking for</text></svg>